<svg width="2514" height="682" viewBox="0 0 2514 682" fill="none" xmlns="http://www.w3.org/2000/svg">
<rect width="2514" height="682" fill="#1E294B"/>
<path d="M153.56 173.24C162.36 173.24 170.08 174.96 176.72 178.4C183.44 181.84 188.6 186.76 192.2 193.16C195.88 199.48 197.72 206.84 197.72 215.24C197.72 223.64 195.88 231 192.2 237.32C188.6 243.56 183.44 248.4 176.72 251.84C170.08 255.28 162.36 257 153.56 257H124.28V173.24H153.56ZM152.96 242.72C161.76 242.72 168.56 240.32 173.36 235.52C178.16 230.72 180.56 223.96 180.56 215.24C180.56 206.52 178.16 199.72 173.36 194.84C168.56 189.88 161.76 187.4 152.96 187.4H141.08V242.72H152.96ZM205.976 223.52C205.976 216.8 207.296 210.84 209.936 205.64C212.656 200.44 216.296 196.44 220.856 193.64C225.496 190.84 230.656 189.44 236.336 189.44C241.296 189.44 245.616 190.44 249.296 192.44C253.056 194.44 256.056 196.96 258.296 200V190.52H275.216V257H258.296V247.28C256.136 250.4 253.136 253 249.296 255.08C245.536 257.08 241.176 258.08 236.216 258.08C230.616 258.08 225.496 256.64 220.856 253.76C216.296 250.88 212.656 246.84 209.936 241.64C207.296 236.36 205.976 230.32 205.976 223.52ZM258.296 223.76C258.296 219.68 257.496 216.2 255.896 213.32C254.296 210.36 252.136 208.12 249.416 206.6C246.696 205 243.776 204.2 240.656 204.2C237.536 204.2 234.656 204.96 232.016 206.48C229.376 208 227.216 210.24 225.536 213.2C223.936 216.08 223.136 219.52 223.136 223.52C223.136 227.52 223.936 231.04 225.536 234.08C227.216 237.04 229.376 239.32 232.016 240.92C234.736 242.52 237.616 243.32 240.656 243.32C243.776 243.32 246.696 242.56 249.416 241.04C252.136 239.44 254.296 237.2 255.896 234.32C257.496 231.36 258.296 227.84 258.296 223.76ZM311.184 204.32V236.48C311.184 238.72 311.704 240.36 312.744 241.4C313.864 242.36 315.704 242.84 318.264 242.84H326.064V257H315.504C301.344 257 294.264 250.12 294.264 236.36V204.32H286.344V190.52H294.264V174.08H311.184V190.52H326.064V204.32H311.184ZM333.827 223.52C333.827 216.8 335.147 210.84 337.787 205.64C340.507 200.44 344.147 196.44 348.707 193.64C353.347 190.84 358.507 189.44 364.187 189.44C369.147 189.44 373.467 190.44 377.147 192.44C380.907 194.44 383.907 196.96 386.147 200V190.52H403.067V257H386.147V247.28C383.987 250.4 380.987 253 377.147 255.08C373.387 257.08 369.027 258.08 364.067 258.08C358.467 258.08 353.347 256.64 348.707 253.76C344.147 250.88 340.507 246.84 337.787 241.64C335.147 236.36 333.827 230.32 333.827 223.52ZM386.147 223.76C386.147 219.68 385.347 216.2 383.747 213.32C382.147 210.36 379.987 208.12 377.267 206.6C374.547 205 371.627 204.2 368.507 204.2C365.387 204.2 362.507 204.96 359.867 206.48C357.227 208 355.067 210.24 353.387 213.2C351.787 216.08 350.987 219.52 350.987 223.52C350.987 227.52 351.787 231.04 353.387 234.08C355.067 237.04 357.227 239.32 359.867 240.92C362.587 242.52 365.467 243.32 368.507 243.32C371.627 243.32 374.547 242.56 377.267 241.04C379.987 239.44 382.147 237.2 383.747 234.32C385.347 231.36 386.147 227.84 386.147 223.76ZM476.989 257.84C471.149 257.84 465.869 256.84 461.149 254.84C456.509 252.84 452.829 249.96 450.109 246.2C447.389 242.44 445.989 238 445.909 232.88H463.909C464.149 236.32 465.349 239.04 467.509 241.04C469.749 243.04 472.789 244.04 476.629 244.04C480.549 244.04 483.629 243.12 485.869 241.28C488.109 239.36 489.229 236.88 489.229 233.84C489.229 231.36 488.469 229.32 486.949 227.72C485.429 226.12 483.509 224.88 481.189 224C478.949 223.04 475.829 222 471.829 220.88C466.389 219.28 461.949 217.72 458.509 216.2C455.149 214.6 452.229 212.24 449.749 209.12C447.349 205.92 446.149 201.68 446.149 196.4C446.149 191.44 447.389 187.12 449.869 183.44C452.349 179.76 455.829 176.96 460.309 175.04C464.789 173.04 469.909 172.04 475.669 172.04C484.309 172.04 491.309 174.16 496.669 178.4C502.109 182.56 505.109 188.4 505.669 195.92H487.189C487.029 193.04 485.789 190.68 483.469 188.84C481.229 186.92 478.229 185.96 474.469 185.96C471.189 185.96 468.549 186.8 466.549 188.48C464.629 190.16 463.669 192.6 463.669 195.8C463.669 198.04 464.389 199.92 465.829 201.44C467.349 202.88 469.189 204.08 471.349 205.04C473.589 205.92 476.709 206.96 480.709 208.16C486.149 209.76 490.589 211.36 494.029 212.96C497.469 214.56 500.429 216.96 502.909 220.16C505.389 223.36 506.629 227.56 506.629 232.76C506.629 237.24 505.469 241.4 503.149 245.24C500.829 249.08 497.429 252.16 492.949 254.48C488.469 256.72 483.149 257.84 476.989 257.84ZM540.754 204.32V236.48C540.754 238.72 541.274 240.36 542.314 241.4C543.434 242.36 545.274 242.84 547.834 242.84H555.634V257H545.074C530.914 257 523.834 250.12 523.834 236.36V204.32H515.914V190.52H523.834V174.08H540.754V190.52H555.634V204.32H540.754ZM584.518 200.84C586.678 197.32 589.478 194.56 592.918 192.56C596.438 190.56 600.438 189.56 604.918 189.56V207.2H600.478C595.198 207.2 591.198 208.44 588.478 210.92C585.838 213.4 584.518 217.72 584.518 223.88V257H567.718V190.52H584.518V200.84ZM678.993 190.52V257H662.073V248.6C659.913 251.48 657.073 253.76 653.553 255.44C650.113 257.04 646.353 257.84 642.273 257.84C637.073 257.84 632.473 256.76 628.473 254.6C624.473 252.36 621.313 249.12 618.993 244.88C616.753 240.56 615.633 235.44 615.633 229.52V190.52H632.433V227.12C632.433 232.4 633.753 236.48 636.393 239.36C639.033 242.16 642.633 243.56 647.193 243.56C651.833 243.56 655.473 242.16 658.113 239.36C660.753 236.48 662.073 232.4 662.073 227.12V190.52H678.993ZM691.249 223.76C691.249 216.88 692.649 210.88 695.449 205.76C698.249 200.56 702.129 196.56 707.089 193.76C712.049 190.88 717.729 189.44 724.129 189.44C732.369 189.44 739.169 191.52 744.529 195.68C749.969 199.76 753.609 205.52 755.449 212.96H737.329C736.369 210.08 734.729 207.84 732.409 206.24C730.169 204.56 727.369 203.72 724.009 203.72C719.209 203.72 715.409 205.48 712.609 209C709.809 212.44 708.409 217.36 708.409 223.76C708.409 230.08 709.809 235 712.609 238.52C715.409 241.96 719.209 243.68 724.009 243.68C730.809 243.68 735.249 240.64 737.329 234.56H755.449C753.609 241.76 749.969 247.48 744.529 251.72C739.089 255.96 732.289 258.08 724.129 258.08C717.729 258.08 712.049 256.68 707.089 253.88C702.129 251 698.249 247 695.449 241.88C692.649 236.68 691.249 230.64 691.249 223.76ZM787.317 204.32V236.48C787.317 238.72 787.837 240.36 788.877 241.4C789.997 242.36 791.837 242.84 794.397 242.84H802.197V257H791.637C777.477 257 770.397 250.12 770.397 236.36V204.32H762.477V190.52H770.397V174.08H787.317V190.52H802.197V204.32H787.317ZM877.04 190.52V257H860.12V248.6C857.96 251.48 855.12 253.76 851.6 255.44C848.16 257.04 844.4 257.84 840.32 257.84C835.12 257.84 830.52 256.76 826.52 254.6C822.52 252.36 819.36 249.12 817.04 244.88C814.8 240.56 813.68 235.44 813.68 229.52V190.52H830.48V227.12C830.48 232.4 831.8 236.48 834.44 239.36C837.08 242.16 840.68 243.56 845.24 243.56C849.88 243.56 853.52 242.16 856.16 239.36C858.8 236.48 860.12 232.4 860.12 227.12V190.52H877.04ZM910.416 200.84C912.576 197.32 915.376 194.56 918.816 192.56C922.336 190.56 926.336 189.56 930.816 189.56V207.2H926.376C921.096 207.2 917.096 208.44 914.376 210.92C911.736 213.4 910.416 217.72 910.416 223.88V257H893.616V190.52H910.416V200.84ZM1003.93 222.32C1003.93 224.72 1003.77 226.88 1003.45 228.8H954.852C955.252 233.6 956.932 237.36 959.892 240.08C962.852 242.8 966.492 244.16 970.812 244.16C977.052 244.16 981.492 241.48 984.132 236.12H1002.25C1000.33 242.52 996.652 247.8 991.212 251.96C985.772 256.04 979.092 258.08 971.172 258.08C964.772 258.08 959.012 256.68 953.892 253.88C948.852 251 944.892 246.96 942.012 241.76C939.212 236.56 937.812 230.56 937.812 223.76C937.812 216.88 939.212 210.84 942.012 205.64C944.812 200.44 948.732 196.44 953.772 193.64C958.812 190.84 964.612 189.44 971.172 189.44C977.492 189.44 983.132 190.8 988.092 193.52C993.132 196.24 997.012 200.12 999.732 205.16C1002.53 210.12 1003.93 215.84 1003.93 222.32ZM986.532 217.52C986.452 213.2 984.892 209.76 981.852 207.2C978.812 204.56 975.092 203.24 970.692 203.24C966.532 203.24 963.012 204.52 960.132 207.08C957.332 209.56 955.612 213.04 954.972 217.52H986.532ZM1041.63 258.08C1036.19 258.08 1031.31 257.12 1026.99 255.2C1022.67 253.2 1019.23 250.52 1016.67 247.16C1014.19 243.8 1012.83 240.08 1012.59 236H1029.51C1029.83 238.56 1031.07 240.68 1033.23 242.36C1035.47 244.04 1038.23 244.88 1041.51 244.88C1044.71 244.88 1047.19 244.24 1048.95 242.96C1050.79 241.68 1051.71 240.04 1051.71 238.04C1051.71 235.88 1050.59 234.28 1048.35 233.24C1046.19 232.12 1042.71 230.92 1037.91 229.64C1032.95 228.44 1028.87 227.2 1025.67 225.92C1022.55 224.64 1019.83 222.68 1017.51 220.04C1015.27 217.4 1014.15 213.84 1014.15 209.36C1014.15 205.68 1015.19 202.32 1017.27 199.28C1019.43 196.24 1022.47 193.84 1026.39 192.08C1030.39 190.32 1035.07 189.44 1040.43 189.44C1048.35 189.44 1054.67 191.44 1059.39 195.44C1064.11 199.36 1066.71 204.68 1067.19 211.4H1051.11C1050.87 208.76 1049.75 206.68 1047.75 205.16C1045.83 203.56 1043.23 202.76 1039.95 202.76C1036.91 202.76 1034.55 203.32 1032.87 204.44C1031.27 205.56 1030.47 207.12 1030.47 209.12C1030.47 211.36 1031.59 213.08 1033.83 214.28C1036.07 215.4 1039.55 216.56 1044.27 217.76C1049.07 218.96 1053.03 220.2 1056.15 221.48C1059.27 222.76 1061.95 224.76 1064.19 227.48C1066.51 230.12 1067.71 233.64 1067.79 238.04C1067.79 241.88 1066.71 245.32 1064.55 248.36C1062.47 251.4 1059.43 253.8 1055.43 255.56C1051.51 257.24 1046.91 258.08 1041.63 258.08ZM1174.62 257L1165.5 248C1157.74 254.96 1148.26 258.44 1137.06 258.44C1130.9 258.44 1125.46 257.4 1120.74 255.32C1116.1 253.16 1112.5 250.16 1109.94 246.32C1107.38 242.4 1106.1 237.88 1106.1 232.76C1106.1 227.24 1107.66 222.28 1110.78 217.88C1113.9 213.48 1118.5 209.92 1124.58 207.2C1122.42 204.56 1120.86 202.04 1119.9 199.64C1118.94 197.16 1118.46 194.52 1118.46 191.72C1118.46 187.88 1119.46 184.44 1121.46 181.4C1123.46 178.28 1126.3 175.84 1129.98 174.08C1133.74 172.32 1138.1 171.44 1143.06 171.44C1148.1 171.44 1152.42 172.4 1156.02 174.32C1159.62 176.24 1162.3 178.8 1164.06 182C1165.82 185.2 1166.58 188.76 1166.34 192.68H1150.02C1150.1 190.04 1149.46 188.04 1148.1 186.68C1146.74 185.24 1144.9 184.52 1142.58 184.52C1140.34 184.52 1138.46 185.2 1136.94 186.56C1135.5 187.84 1134.78 189.52 1134.78 191.6C1134.78 193.6 1135.38 195.6 1136.58 197.6C1137.78 199.52 1139.74 201.92 1142.46 204.8L1163.58 225.68C1163.74 225.52 1163.86 225.36 1163.94 225.2C1164.02 225.04 1164.1 224.88 1164.18 224.72L1171.02 213.32H1188.54L1180.14 228.08C1178.54 231.2 1176.82 234.16 1174.98 236.96L1195.26 257H1174.62ZM1137.54 244.52C1144.1 244.52 1149.9 242.2 1154.94 237.56L1134.3 217.16C1126.54 220.6 1122.66 225.48 1122.66 231.8C1122.66 235.4 1124.02 238.44 1126.74 240.92C1129.46 243.32 1133.06 244.52 1137.54 244.52ZM175.64 386.04H142.28L136.76 402H119.12L149.24 318.12H168.8L198.92 402H181.16L175.64 386.04ZM171.08 372.6L158.96 337.56L146.84 372.6H171.08ZM226.978 313.2V402H210.178V313.2H226.978ZM269.617 334.44C274.577 334.44 278.937 335.44 282.697 337.44C286.457 339.36 289.417 341.88 291.577 345V335.52H308.497V402.48C308.497 408.64 307.257 414.12 304.777 418.92C302.297 423.8 298.577 427.64 293.617 430.44C288.657 433.32 282.657 434.76 275.617 434.76C266.177 434.76 258.417 432.56 252.337 428.16C246.337 423.76 242.937 417.76 242.137 410.16H258.817C259.697 413.2 261.577 415.6 264.457 417.36C267.417 419.2 270.977 420.12 275.137 420.12C280.017 420.12 283.977 418.64 287.017 415.68C290.057 412.8 291.577 408.4 291.577 402.48V392.16C289.417 395.28 286.417 397.88 282.577 399.96C278.817 402.04 274.497 403.08 269.617 403.08C264.017 403.08 258.897 401.64 254.257 398.76C249.617 395.88 245.937 391.84 243.217 386.64C240.577 381.36 239.257 375.32 239.257 368.52C239.257 361.8 240.577 355.84 243.217 350.64C245.937 345.44 249.577 341.44 254.137 338.64C258.777 335.84 263.937 334.44 269.617 334.44ZM291.577 368.76C291.577 364.68 290.777 361.2 289.177 358.32C287.577 355.36 285.417 353.12 282.697 351.6C279.977 350 277.057 349.2 273.937 349.2C270.817 349.2 267.937 349.96 265.297 351.48C262.657 353 260.497 355.24 258.817 358.2C257.217 361.08 256.417 364.52 256.417 368.52C256.417 372.52 257.217 376.04 258.817 379.08C260.497 382.04 262.657 384.32 265.297 385.92C268.017 387.52 270.897 388.32 273.937 388.32C277.057 388.32 279.977 387.56 282.697 386.04C285.417 384.44 287.577 382.2 289.177 379.32C290.777 376.36 291.577 372.84 291.577 368.76ZM354.425 403.08C348.025 403.08 342.265 401.68 337.145 398.88C332.025 396 327.985 391.96 325.025 386.76C322.145 381.56 320.705 375.56 320.705 368.76C320.705 361.96 322.185 355.96 325.145 350.76C328.185 345.56 332.305 341.56 337.505 338.76C342.705 335.88 348.505 334.44 354.905 334.44C361.305 334.44 367.105 335.88 372.305 338.76C377.505 341.56 381.585 345.56 384.545 350.76C387.585 355.96 389.105 361.96 389.105 368.76C389.105 375.56 387.545 381.56 384.425 386.76C381.385 391.96 377.225 396 371.945 398.88C366.745 401.68 360.905 403.08 354.425 403.08ZM354.425 388.44C357.465 388.44 360.305 387.72 362.945 386.28C365.665 384.76 367.825 382.52 369.425 379.56C371.025 376.6 371.825 373 371.825 368.76C371.825 362.44 370.145 357.6 366.785 354.24C363.505 350.8 359.465 349.08 354.665 349.08C349.865 349.08 345.825 350.8 342.545 354.24C339.345 357.6 337.745 362.44 337.745 368.76C337.745 375.08 339.305 379.96 342.425 383.4C345.625 386.76 349.625 388.44 354.425 388.44ZM418.228 345.84C420.388 342.32 423.188 339.56 426.628 337.56C430.148 335.56 434.148 334.56 438.628 334.56V352.2H434.188C428.908 352.2 424.908 353.44 422.188 355.92C419.548 358.4 418.228 362.72 418.228 368.88V402H401.428V335.52H418.228V345.84ZM458.464 327.6C455.504 327.6 453.024 326.68 451.024 324.84C449.104 322.92 448.144 320.56 448.144 317.76C448.144 314.96 449.104 312.64 451.024 310.8C453.024 308.88 455.504 307.92 458.464 307.92C461.424 307.92 463.864 308.88 465.784 310.8C467.784 312.64 468.784 314.96 468.784 317.76C468.784 320.56 467.784 322.92 465.784 324.84C463.864 326.68 461.424 327.6 458.464 327.6ZM466.744 335.52V402H449.944V335.52H466.744ZM502.903 349.32V381.48C502.903 383.72 503.423 385.36 504.463 386.4C505.583 387.36 507.423 387.84 509.983 387.84H517.783V402H507.223C493.063 402 485.983 395.12 485.983 381.36V349.32H478.063V335.52H485.983V319.08H502.903V335.52H517.783V349.32H502.903ZM567.306 334.56C572.346 334.56 576.826 335.68 580.746 337.92C584.666 340.08 587.706 343.32 589.866 347.64C592.106 351.88 593.226 357 593.226 363V402H576.426V365.28C576.426 360 575.106 355.96 572.466 353.16C569.826 350.28 566.226 348.84 561.666 348.84C557.026 348.84 553.346 350.28 550.626 353.16C547.986 355.96 546.666 360 546.666 365.28V402H529.866V313.2H546.666V343.8C548.826 340.92 551.706 338.68 555.306 337.08C558.906 335.4 562.906 334.56 567.306 334.56ZM691.762 334.56C699.922 334.56 706.482 337.08 711.442 342.12C716.482 347.08 719.002 354.04 719.002 363V402H702.202V365.28C702.202 360.08 700.882 356.12 698.242 353.4C695.602 350.6 692.002 349.2 687.442 349.2C682.882 349.2 679.242 350.6 676.522 353.4C673.882 356.12 672.562 360.08 672.562 365.28V402H655.762V365.28C655.762 360.08 654.442 356.12 651.802 353.4C649.162 350.6 645.562 349.2 641.002 349.2C636.362 349.2 632.682 350.6 629.962 353.4C627.322 356.12 626.002 360.08 626.002 365.28V402H609.202V335.52H626.002V343.56C628.162 340.76 630.922 338.56 634.282 336.96C637.722 335.36 641.482 334.56 645.562 334.56C650.762 334.56 655.402 335.68 659.482 337.92C663.562 340.08 666.722 343.2 668.962 347.28C671.122 343.44 674.242 340.36 678.322 338.04C682.482 335.72 686.962 334.56 691.762 334.56ZM760.384 403.08C754.944 403.08 750.064 402.12 745.744 400.2C741.424 398.2 737.984 395.52 735.424 392.16C732.944 388.8 731.584 385.08 731.344 381H748.264C748.584 383.56 749.824 385.68 751.984 387.36C754.224 389.04 756.984 389.88 760.264 389.88C763.464 389.88 765.944 389.24 767.704 387.96C769.544 386.68 770.464 385.04 770.464 383.04C770.464 380.88 769.344 379.28 767.104 378.24C764.944 377.12 761.464 375.92 756.664 374.64C751.704 373.44 747.624 372.2 744.424 370.92C741.304 369.64 738.584 367.68 736.264 365.04C734.024 362.4 732.904 358.84 732.904 354.36C732.904 350.68 733.944 347.32 736.024 344.28C738.184 341.24 741.224 338.84 745.144 337.08C749.144 335.32 753.824 334.44 759.184 334.44C767.104 334.44 773.424 336.44 778.144 340.44C782.864 344.36 785.464 349.68 785.944 356.4H769.864C769.624 353.76 768.504 351.68 766.504 350.16C764.584 348.56 761.984 347.76 758.704 347.76C755.664 347.76 753.304 348.32 751.624 349.44C750.024 350.56 749.224 352.12 749.224 354.12C749.224 356.36 750.344 358.08 752.584 359.28C754.824 360.4 758.304 361.56 763.024 362.76C767.824 363.96 771.784 365.2 774.904 366.48C778.024 367.76 780.704 369.76 782.944 372.48C785.264 375.12 786.464 378.64 786.544 383.04C786.544 386.88 785.464 390.32 783.304 393.36C781.224 396.4 778.184 398.8 774.184 400.56C770.264 402.24 765.664 403.08 760.384 403.08Z" fill="white"/>
<path fill-rule="evenodd" clip-rule="evenodd" d="M156 474.189C135.158 474.189 118.257 491.086 118.257 511.932C118.257 528.608 129.072 542.755 144.068 547.746C145.954 548.096 146.646 546.928 146.646 545.931C146.646 545.031 146.611 542.058 146.595 538.904C136.095 541.187 133.879 534.451 133.879 534.451C132.162 530.088 129.689 528.928 129.689 528.928C126.264 526.586 129.947 526.634 129.947 526.634C133.736 526.9 135.732 530.524 135.732 530.524C139.099 536.293 144.562 534.625 146.715 533.661C147.054 531.222 148.032 529.556 149.112 528.614C140.729 527.661 131.915 524.424 131.915 509.962C131.915 505.841 133.39 502.474 135.805 499.831C135.412 498.881 134.12 495.042 136.17 489.843C136.17 489.843 139.339 488.829 146.551 493.712C149.562 492.875 152.792 492.454 156 492.44C159.206 492.454 162.437 492.874 165.454 493.711C172.658 488.828 175.823 489.842 175.823 489.842C177.877 495.04 176.585 498.879 176.194 499.829C178.614 502.473 180.078 505.84 180.078 509.961C180.078 524.457 171.249 527.648 162.844 528.583C164.199 529.754 165.405 532.052 165.405 535.573C165.405 540.623 165.361 544.687 165.361 545.93C165.361 546.934 166.041 548.111 167.954 547.741C182.941 542.744 193.743 528.602 193.743 511.932C193.742 491.088 176.844 474.189 156 474.189Z" fill="white"/>
<path d="M132.552 528.379C132.469 528.567 132.174 528.623 131.905 528.495C131.63 528.372 131.477 528.117 131.566 527.928C131.647 527.735 131.943 527.682 132.216 527.811C132.491 527.934 132.647 528.192 132.552 528.38L132.552 528.379ZM134.081 530.085C133.902 530.252 133.55 530.174 133.311 529.91C133.063 529.647 133.017 529.295 133.2 529.126C133.387 528.96 133.728 529.038 133.975 529.301C134.222 529.567 134.27 529.916 134.082 530.085L134.081 530.085ZM135.57 532.258C135.338 532.419 134.96 532.268 134.726 531.933C134.495 531.597 134.495 531.193 134.732 531.033C134.965 530.872 135.338 531.017 135.576 531.35C135.806 531.69 135.806 532.094 135.57 532.258ZM137.608 534.358C137.402 534.586 136.96 534.525 136.638 534.214C136.308 533.91 136.217 533.477 136.423 533.25C136.633 533.021 137.077 533.085 137.401 533.393C137.73 533.697 137.83 534.131 137.609 534.358L137.608 534.358ZM140.42 535.578C140.328 535.873 139.905 536.008 139.477 535.881C139.05 535.752 138.77 535.406 138.858 535.108C138.945 534.809 139.372 534.67 139.803 534.804C140.23 534.933 140.509 535.277 140.42 535.578ZM143.51 535.803C143.52 536.114 143.158 536.372 142.71 536.378C142.258 536.389 141.892 536.136 141.888 535.83C141.888 535.516 142.243 535.261 142.694 535.253C143.142 535.244 143.51 535.494 143.51 535.803L143.51 535.803ZM146.383 535.314C146.437 535.618 146.125 535.929 145.68 536.013C145.242 536.094 144.836 535.905 144.78 535.604C144.726 535.293 145.043 534.981 145.481 534.901C145.927 534.824 146.327 535.006 146.383 535.314Z" fill="white"/>
<path d="M227.7 536.49C224.293 536.49 221.213 535.907 218.46 534.74C215.753 533.573 213.607 531.893 212.02 529.7C210.433 527.507 209.617 524.917 209.57 521.93H220.07C220.21 523.937 220.91 525.523 222.17 526.69C223.477 527.857 225.25 528.44 227.49 528.44C229.777 528.44 231.573 527.903 232.88 526.83C234.187 525.71 234.84 524.263 234.84 522.49C234.84 521.043 234.397 519.853 233.51 518.92C232.623 517.987 231.503 517.263 230.15 516.75C228.843 516.19 227.023 515.583 224.69 514.93C221.517 513.997 218.927 513.087 216.92 512.2C214.96 511.267 213.257 509.89 211.81 508.07C210.41 506.203 209.71 503.73 209.71 500.65C209.71 497.757 210.433 495.237 211.88 493.09C213.327 490.943 215.357 489.31 217.97 488.19C220.583 487.023 223.57 486.44 226.93 486.44C231.97 486.44 236.053 487.677 239.18 490.15C242.353 492.577 244.103 495.983 244.43 500.37H233.65C233.557 498.69 232.833 497.313 231.48 496.24C230.173 495.12 228.423 494.56 226.23 494.56C224.317 494.56 222.777 495.05 221.61 496.03C220.49 497.01 219.93 498.433 219.93 500.3C219.93 501.607 220.35 502.703 221.19 503.59C222.077 504.43 223.15 505.13 224.41 505.69C225.717 506.203 227.537 506.81 229.87 507.51C233.043 508.443 235.633 509.377 237.64 510.31C239.647 511.243 241.373 512.643 242.82 514.51C244.267 516.377 244.99 518.827 244.99 521.86C244.99 524.473 244.313 526.9 242.96 529.14C241.607 531.38 239.623 533.177 237.01 534.53C234.397 535.837 231.293 536.49 227.7 536.49ZM306.756 487.14V536H296.956V504.22L283.866 536H276.446L263.286 504.22V536H253.486V487.14H264.616L280.156 523.47L295.696 487.14H306.756ZM326.245 487.14V536H316.445V487.14H326.245ZM369.178 487.14V495.05H356.158V536H346.358V495.05H333.338V487.14H369.178ZM404.818 487.14V521.44C404.818 526.2 403.441 529.91 400.688 532.57C397.935 535.183 394.248 536.49 389.628 536.49C384.961 536.49 381.181 535.137 378.288 532.43C375.441 529.723 374.018 525.943 374.018 521.09H383.818C383.865 523.19 384.355 524.823 385.288 525.99C386.268 527.157 387.668 527.74 389.488 527.74C391.261 527.74 392.615 527.18 393.548 526.06C394.481 524.94 394.948 523.4 394.948 521.44V487.14H404.818ZM425.91 487.14V517.38C425.91 520.693 426.773 523.237 428.5 525.01C430.227 526.737 432.653 527.6 435.78 527.6C438.953 527.6 441.403 526.737 443.13 525.01C444.857 523.237 445.72 520.693 445.72 517.38V487.14H455.59V517.31C455.59 521.463 454.68 524.987 452.86 527.88C451.087 530.727 448.683 532.873 445.65 534.32C442.663 535.767 439.327 536.49 435.64 536.49C432 536.49 428.687 535.767 425.7 534.32C422.76 532.873 420.427 530.727 418.7 527.88C416.973 524.987 416.11 521.463 416.11 517.31V487.14H425.91ZM486.479 536L478.499 523.96L471.429 536H460.929L473.599 516.54L460.789 497.22H471.849L479.759 509.19L486.899 497.22H497.399L484.659 516.54L497.539 536H486.479Z" fill="white"/>
</svg>
